<?xml version="1.0" encoding="UTF-8" standalone="no"?>
<!-- Created with Inkscape (http://www.inkscape.org/) -->

<svg
   width="20.63714mm"
   height="24.32168mm"
   viewBox="0 0 20.63714 24.32168"
   version="1.1"
   id="svg5"
   inkscape:version="1.1.2 (b8e25be833, 2022-02-05)"
   sodipodi:docname="GlyphNotesLogo.svg"
   xmlns:inkscape="http://www.inkscape.org/namespaces/inkscape"
   xmlns:sodipodi="http://sodipodi.sourceforge.net/DTD/sodipodi-0.dtd"
   xmlns="http://www.w3.org/2000/svg"
   xmlns:svg="http://www.w3.org/2000/svg">
  <sodipodi:namedview
     id="namedview7"
     pagecolor="#ffffff"
     bordercolor="#666666"
     borderopacity="1.0"
     inkscape:pageshadow="2"
     inkscape:pageopacity="0.0"
     inkscape:pagecheckerboard="0"
     inkscape:document-units="mm"
     showgrid="false"
     fit-margin-top="0"
     fit-margin-left="0"
     fit-margin-right="0"
     fit-margin-bottom="0"
     inkscape:zoom="2.5620932"
     inkscape:cx="0.78061174"
     inkscape:cy="22.637741"
     inkscape:window-width="2560"
     inkscape:window-height="1506"
     inkscape:window-x="-11"
     inkscape:window-y="-11"
     inkscape:window-maximized="1"
     inkscape:current-layer="layer1" />
  <defs
     id="defs2" />
  <g
     inkscape:label="Layer 1"
     inkscape:groupmode="layer"
     id="layer1"
     transform="translate(-127.74533,-128.4615)">
    <path
       style="fill:#000000;stroke-width:0.264583"
       d="m 141.38527,151.93325 -0.48488,-0.84988 -0.51921,-0.86852 -0.5192,-0.86853 3.13577,0.0748 3.13577,0.0748 v 0.37835 0.37836 l -1.32292,0.77142 -1.32292,0.77142 -0.80877,0.49385 -0.80876,0.49386 z m -10.00805,-5.81082 0.50952,-0.85989 0.37401,-0.59531 0.37401,-0.59532 h 7.87386 7.87385 v 1.45521 1.45521 h -8.75738 -8.75739 z m -3.62789,-2.94075 -0.004,-3.1392 0.69928,-1.28481 0.69928,-1.28482 0.16062,0.1012 0.16061,0.1012 0.77529,1.43941 0.7753,1.43942 -1.63084,2.88339 -1.63084,2.8834 z m 3.99089,-7.96445 -3.73066,-6.47343 v -0.14115 -0.14115 l 2.97656,0.004 2.97656,0.004 2.91042,5.06789 2.91042,5.06789 0.87521,1.54305 0.87522,1.54304 h -3.03154 -3.03153 z"
       id="path1296" />
  </g>
</svg>
